<svg width="84" height="15" viewBox="0 0 84 15" fill="none" xmlns="http://www.w3.org/2000/svg">
<path fill-rule="evenodd" clip-rule="evenodd" d="M81.7621 14.7241H78.9997L79.1847 13.5773C79.1847 13.5773 78.2639 14.7241 76.6057 14.7241C74.2125 14.7241 73.1067 12.4289 73.1067 9.9436C73.1067 6.11901 75.3166 2.86782 77.8956 2.86782C79.5513 2.86782 80.6571 4.39966 80.6571 4.39966L81.2096 0.38338L83.9719 0.765923L81.7621 14.7241ZM79.7372 8.03173C79.7372 6.31154 79.368 5.54645 78.2639 5.54645C76.974 5.54645 76.054 7.07579 76.054 9.37021C76.054 10.7095 76.4224 11.6655 77.5265 11.6655C79.1847 11.6655 79.9197 9.56022 79.7372 8.03173ZM70.3444 14.3408H67.3979L69.2394 2.86782H71.8185L71.6335 4.58968C71.6335 4.58968 72.5542 2.86782 73.8442 2.86782C74.2125 2.86782 74.3958 2.86782 74.3958 2.86782C74.0275 3.63374 73.66 4.39966 73.2917 6.11901C71.2651 5.54645 71.2651 9.37021 70.3444 14.3408ZM64.453 14.5333L64.6355 13.3848C64.6355 13.3848 63.7156 14.7241 61.6899 14.7241C60.5849 14.7241 58.9283 14.1507 58.9283 11.4729C58.9283 8.22342 61.5057 7.07579 63.8989 7.07579C64.2672 7.07579 65.188 7.07579 65.188 7.07579C65.188 7.07579 65.3738 6.88493 65.3738 6.31154C65.3738 5.54645 64.6355 5.3556 63.5314 5.3556C61.6898 5.3556 60.4016 5.929 60.4016 5.929L60.7699 3.2512C60.7699 3.2512 62.2432 2.6778 64.2672 2.6778C65.188 2.6778 68.1362 2.86782 68.1362 6.31154L67.0295 14.5333H64.453ZM64.2672 9.17935C62.0573 9.17935 61.6899 10.1361 61.6899 10.9004C61.6899 11.2829 61.874 12.048 62.794 12.048C64.453 12.048 64.8197 9.75275 64.8197 9.17935C64.8197 9.17935 64.8197 9.17935 64.2672 9.17935ZM56.7185 3.06034C54.6919 3.06034 53.0353 4.97306 53.0353 8.41427C53.0353 10.1361 53.7703 11.6655 55.9802 11.6655C56.9018 11.6655 58.3742 10.9004 58.3742 10.9004L57.8217 14.1507C57.8217 14.1507 56.3493 14.5333 55.4285 14.5333C51.9287 14.5333 50.273 12.048 50.273 8.41427C50.273 2.86782 53.4028 0 56.7185 0C58.1909 0 59.8491 0.765923 59.8491 0.765923L59.2958 3.82459C59.2958 3.82459 58.1909 3.06034 56.7185 3.06034ZM50.5819 2.80085C50.602 2.75983 50.6221 2.71882 50.6413 2.6778C50.6413 2.7364 50.6179 2.77323 50.5819 2.80085ZM46.5899 14.3408H43.6425C43.6425 14.3408 44.2963 10.2659 44.8245 6.97366C45.1836 4.74119 45.4841 2.86782 45.4841 2.86782H48.0631L47.879 4.58968C47.879 4.58968 48.8006 2.86782 50.0872 2.86782C50.3425 2.86782 50.5032 2.86363 50.5819 2.80085C50.2337 3.52827 49.8846 4.30926 49.5364 6.11901C47.5107 5.54645 47.3248 9.37021 46.5899 14.3408ZM37.5662 9.75275C37.5662 9.75275 37.0137 12.048 40.1452 12.048C41.4343 12.048 43.0909 11.2829 43.0909 11.2829L42.5376 14.1507C42.5376 14.1507 41.6177 14.7241 39.5928 14.7241C37.1971 14.7241 34.6206 13.7674 34.6206 9.56022C34.6206 5.929 36.6454 2.6778 39.5928 2.6778C42.7218 2.6778 43.6425 5.16307 43.6425 7.07579C43.6425 7.84087 43.2751 9.75275 43.2751 9.75275H37.5662ZM39.5928 5.3556C38.1178 5.3556 37.7512 7.07579 37.7512 7.45833H40.8802C40.8802 7.26748 41.2493 5.3556 39.5928 5.3556ZM34.6206 5.73647H33.1473L32.4098 10.7095C32.4098 11.0921 32.594 11.6655 33.5139 11.6655C33.6998 11.6655 34.0681 11.6655 34.2514 11.6655L33.8831 14.1507C33.5139 14.1507 32.779 14.5333 31.6724 14.5333C30.385 14.5333 29.4642 13.7674 29.4642 12.048C29.4642 10.9004 31.1207 1.14847 31.1207 1.14847H33.8831L33.5139 2.86782H34.9889L34.6206 5.73647ZM27.2543 5.3556C26.1485 5.3556 25.5961 5.73647 25.5961 6.31154C25.5961 7.84087 28.9109 7.07579 28.9109 10.7095C28.9109 14.7241 25.2269 14.5333 24.6761 14.5333C22.2821 14.5333 21.5446 14.1507 21.5446 14.1507L21.9129 11.4729C21.9129 11.4729 23.2029 11.8555 24.4928 11.8555C25.4127 11.8555 26.3335 11.8555 26.3335 10.9004C26.3335 9.56022 22.8345 9.9436 22.8345 6.50239C22.8345 3.63374 25.0436 2.6778 27.0685 2.6778C28.7267 2.6778 29.6483 2.86782 29.6483 2.86782L29.2792 5.54645C29.2792 5.54645 27.6226 5.3556 27.2543 5.3556ZM18.4156 14.5333L18.599 13.3848C18.599 13.3848 17.6782 14.7241 15.6533 14.7241C14.5475 14.7241 12.8918 14.1507 12.8918 11.4729C12.8918 8.22342 15.4683 7.07579 17.8615 7.07579C18.2298 7.07579 19.1514 7.07579 19.1514 7.07579C19.1514 7.07579 19.3356 6.88493 19.3356 6.31154C19.3356 5.54645 18.599 5.3556 17.494 5.3556C15.6533 5.3556 14.3642 5.929 14.3642 5.929L14.7325 3.2512C14.7325 3.2512 16.2058 2.6778 18.2298 2.6778C19.1514 2.6778 22.0988 2.86782 22.0988 6.31154L20.993 14.5333H18.4156ZM18.2298 9.17935C16.0199 9.17935 15.6533 10.1361 15.6533 10.9004C15.6533 11.2829 15.8366 12.048 16.7574 12.048C18.4156 12.048 18.7831 9.75275 18.7831 9.17935C18.7831 9.17935 18.7831 9.17935 18.2298 9.17935ZM8.65451 14.3408L10.3119 3.82459L6.62879 14.3408H4.78806L4.41891 3.82459L2.76318 14.3408H0L2.20904 0.38338H6.44547L6.62879 8.98767L9.39197 0.38338H13.8117L11.6018 14.3408H8.65451Z" fill="#7C7C7C"/>
</svg>
