<svg width="115" height="16" viewBox="0 0 115 16" fill="none" xmlns="http://www.w3.org/2000/svg">
<path d="M29.8874 3.3854C28.3587 -0.0872153 20.4824 -1.04344 12.2978 1.25276C-8.29881 7.75763 -0.661568 18.9178 17.8339 13.8284C26.0185 11.5322 31.4161 6.85802 29.8874 3.3854ZM25.0874 7.54374C23.8166 9.70784 19.1047 11.1044 13.0716 11.1044C6.74291 11.1044 4.30201 8.38044 4.84304 7.54374C5.37148 6.70704 10.8761 3.97047 17.2551 3.97047C22.766 3.99563 26.2638 5.34819 25.0874 7.54374Z" fill="white"/>
<path d="M84.1534 1.13333C80.5864 -0.21923 74.6226 -0.502324 69.0425 1.083C60.8454 3.40437 55.4414 8.13519 56.9764 11.6518C59.5368 16.5022 70.0553 15.1685 74.5974 13.8096C74.5974 13.8096 77.0949 13.1176 78.3091 12.2054C79.215 11.5134 78.5419 10.7145 77.4095 10.4817C76.9691 10.3936 76.5162 10.4188 76.0758 10.5132C74.264 10.8969 72.1314 11.1045 69.7974 11.1045C63.7895 11.1045 61.0026 8.56297 61.5814 7.45576C63.7958 5.12181 74.5093 1.96374 81.291 5.36716C83.8263 6.58132 87.9406 2.71237 84.1534 1.13333Z" fill="white"/>
<path d="M114.287 4.35419C113.438 -0.376626 104.945 -0.993142 96.4585 1.25903C88.2802 3.55523 82.8826 8.22943 84.4113 11.7021C86.5313 16.6593 100.164 15.571 107.21 11.8845C107.229 11.8719 107.248 11.8908 107.241 11.9159C107.097 12.3878 106.996 12.8093 106.87 13.1175C106.455 14.1178 107.071 15.0866 108.292 15.0866C109.795 15.0866 110.701 14.2625 111.626 12.4318C112.519 10.7521 114.608 6.16599 114.287 4.35419ZM109.248 7.55C107.977 9.7141 103.265 11.1107 97.2323 11.1107C90.9035 11.1107 88.4689 8.38671 89.0037 7.55C89.5321 6.7133 95.0304 3.98302 101.416 3.98302C106.933 4.00189 110.424 5.35445 109.248 7.55Z" fill="white"/>
<path d="M56.7122 1.12695C54.4034 0.252508 51.0943 -0.168987 47.5337 0.0637789C41.4943 0.636258 35.0461 3.10232 32.6744 6.40508H32.6807C31.4791 7.80797 30.3467 10.9975 29.6421 12.7212C28.6733 15.0866 30.1894 15.5144 31.693 14.9105C32.5989 14.5456 33.5048 13.797 33.8571 12.8722C35.3103 8.98438 34.8385 6.93353 37.7197 5.42369C37.7197 5.42369 40.7897 3.82578 46.5585 3.82578C48.2131 3.82578 51.8115 4.34164 53.8372 5.35449C56.3851 6.57494 60.4931 2.70599 56.7122 1.12695Z" fill="white"/>
</svg>
