<svg width="68" height="20" viewBox="0 0 68 20" fill="none" xmlns="http://www.w3.org/2000/svg">
<path fill-rule="evenodd" clip-rule="evenodd" d="M14.0366 2.49433C13.7457 2.04314 13.4565 1.59029 12.8763 1.29062C12.4411 0.989269 11.8609 0.687922 11.1357 0.687922C10.4113 0.538086 9.6861 0.538086 8.81496 0.538086H4.61031C4.17603 0.538086 3.74003 0.837758 3.59498 1.29062L0.984997 13.9304C0.83995 14.3799 1.13004 14.6821 1.56518 14.6821H3.59498C4.03012 14.6821 4.46441 14.3799 4.61031 13.9304L5.33555 10.9203C5.48059 10.4683 5.91488 10.1686 6.35087 10.1686H6.78516C9.25096 10.1686 11.1357 9.71577 12.4411 8.66356C13.7457 7.60885 14.4709 6.25614 14.4709 4.59957C14.4709 3.54737 14.3267 2.94551 14.0366 2.49433ZM9.83029 6.55749C9.25096 7.00783 8.38067 7.30918 7.36535 7.30918H6.78516C6.35087 7.30918 6.06078 7.00783 6.20497 6.55749L6.78516 3.84788C6.9302 3.39753 7.36535 3.09451 7.80049 3.09451H8.52572C9.25096 3.09451 9.83029 3.24602 10.2654 3.54737C10.7014 3.84788 10.8465 4.2999 10.8465 4.75024C10.7014 5.50361 10.4113 6.10463 9.83029 6.55749ZM37.0931 5.05243L29.1181 19.045C28.828 19.4961 28.247 19.7975 27.8127 19.7975H25.7829C25.3469 19.7975 25.2027 19.4961 25.4919 19.045L27.2333 15.8842C27.2333 15.8842 27.3775 15.7343 27.2333 14.6821C27.0874 12.5752 25.7829 4.59957 25.7829 4.59957C25.637 4.15006 25.9279 3.84788 26.3622 3.84788H28.1028C28.683 3.84788 29.1181 4.15006 29.1181 4.59957L29.9884 10.1686H30.2785C30.5677 9.71577 33.4678 4.59957 33.4678 4.59957C33.7587 4.15006 34.3389 3.84788 34.7732 3.84788C34.7732 3.84788 36.6588 3.84788 37.0931 3.84788C37.9625 3.84788 37.0931 5.05243 37.0931 5.05243ZM50.2889 2.49433C50.0006 2.04314 49.7096 1.59029 49.1303 1.29062C48.6951 0.989269 48.1141 0.687922 47.3889 0.687922C46.6645 0.538086 45.9392 0.538086 45.069 0.538086H40.8626C40.43 0.538086 39.9932 0.837758 39.849 1.29062L37.0931 13.9304C36.9489 14.3799 37.2381 14.6821 37.675 14.6821H39.7048C40.1382 14.6821 40.5742 14.3799 40.7184 13.9304L41.4436 10.9203C41.5887 10.4683 42.0247 10.1686 42.4598 10.1686H43.0383C45.505 10.1686 47.3889 9.71577 48.6951 8.66356C50.0006 7.60885 50.7258 6.25614 50.7258 4.59957C50.5807 3.69804 50.4348 3.09451 50.2889 2.49433ZM45.9392 6.70648C45.3599 7.15934 44.4888 7.45901 43.4752 7.45901H43.0383C42.6057 7.45901 42.3131 7.15934 42.4598 6.70648L43.0383 3.99939C43.1842 3.54737 43.6185 3.24602 44.0554 3.24602H44.6338C45.3599 3.24602 45.9392 3.39753 46.3752 3.69804C46.8104 3.99939 46.9554 4.44973 46.9554 4.90259C46.8104 5.50361 46.5194 6.25614 45.9392 6.70648ZM23.7531 4.2999C23.027 3.84788 21.8675 3.69804 20.1269 3.69804C19.2566 3.69804 18.5322 3.69804 17.662 3.84788C17.0818 3.99939 16.9359 3.99939 16.6466 3.99939C15.9205 4.15006 15.7772 4.90259 15.7772 4.90259L15.6322 6.10463C15.4863 6.70648 15.9205 6.70648 16.0664 6.70648C16.3565 6.55749 16.6466 6.55749 17.2268 6.40681C17.807 6.25614 18.5322 6.10463 19.1116 6.10463C19.8368 6.10463 20.562 6.25614 20.853 6.40681C21.2864 6.55749 21.4323 6.85632 21.4323 7.30918V7.60885H21.1414C19.9819 7.60885 19.2566 7.76036 18.2413 7.91103C17.2268 8.06087 16.3565 8.36138 15.7772 8.66356C15.0511 8.96324 14.4709 9.41693 14.0366 10.0171C13.6015 10.6181 13.4565 11.3698 13.4565 12.1224C13.4565 12.8749 13.7457 13.6274 14.3267 14.0794C14.9061 14.5306 15.6322 14.832 16.3565 14.832C16.9359 14.832 17.371 14.832 17.662 14.6821L18.6764 14.3799L19.5467 13.9304L20.2711 13.4776L20.1269 13.7789C19.9819 14.2293 20.2711 14.5306 20.7071 14.5306H22.3026H22.5918C23.027 14.5306 23.3171 14.0794 23.4621 13.7789L24.9126 7.30918L25.0576 6.70648V6.25614C24.7675 5.35126 24.4775 4.75024 23.7531 4.2999ZM20.417 11.6728L20.1269 12.1224L19.4025 12.5752C18.9674 12.725 18.6764 12.8749 18.3863 12.8749C17.9521 12.8749 17.5169 12.8749 17.2268 12.725L16.7917 11.9725C16.7917 11.5213 16.9359 11.2208 17.0818 10.9203L17.9521 10.3185C18.2413 10.1686 18.8215 10.0171 19.2566 10.0171C19.6918 10.0171 20.562 9.8656 20.7071 9.8656L20.853 10.1686C20.853 10.0171 20.562 11.071 20.417 11.6728ZM59.8612 4.2999C59.1359 3.84788 57.9756 3.69804 56.235 3.69804C55.3647 3.69804 54.6395 3.69804 53.7692 3.84788C53.189 3.99939 53.0448 3.99939 52.7565 3.99939C52.0321 4.15006 51.8853 4.90259 51.8853 4.90259L51.7394 6.10463C51.5952 6.70648 52.0321 6.70648 52.1754 6.70648C52.4646 6.55749 52.7565 6.55749 53.3349 6.40681C53.9151 6.25614 54.6395 6.10463 55.2205 6.10463C55.9458 6.10463 56.6701 6.25614 56.9611 6.40681C57.3954 6.55749 57.5396 6.85632 57.5396 7.30918V7.60885H57.2521C56.09 7.60885 55.2205 7.76036 54.3511 7.91103C53.3349 8.06087 52.4646 8.36138 51.8853 8.66356C51.1601 8.96324 50.5807 9.41693 50.1447 10.0171C49.7096 10.6181 49.5646 11.3698 49.5646 12.1224C49.5646 12.8749 49.8555 13.6274 50.4348 14.0794C51.015 14.5306 51.7394 14.832 52.4646 14.832C53.0448 14.832 53.4817 14.832 53.7692 14.6821L54.7854 14.3799L55.6565 13.9304L56.3818 13.4776V13.7789C56.235 14.2293 56.526 14.5306 56.9611 14.5306C57.252 14.5306 58.1198 14.5306 58.5566 14.5306H58.8459C59.2819 14.5306 59.5702 14.0794 59.7153 13.7789L61.1657 7.30918L61.3116 6.70648V6.25614C61.0207 5.50361 60.5856 4.75024 59.8612 4.2999ZM56.6701 11.6728L56.3818 12.1224L55.6565 12.5752C55.2205 12.725 54.9313 12.8749 54.6395 12.8749C54.2061 12.8749 53.7692 12.8749 53.4817 12.5752L53.0448 11.8227C53.0448 11.3698 53.189 11.071 53.3349 10.7688C53.4817 10.4683 53.7692 10.3185 54.2061 10.1686C54.4953 10.0171 54.9313 9.8656 55.5106 9.8656C55.9458 9.8656 56.8152 9.71577 56.9611 9.71577L57.1061 10.0171C56.9611 10.0171 56.8152 11.071 56.6701 11.6728ZM67.2569 1.29062L64.646 13.7789L64.5018 13.9304C64.3568 14.2293 64.0658 14.5306 63.6324 14.5306H61.8901C61.6017 14.5306 61.3117 14.2293 61.4567 13.7789L61.6017 13.4776L64.0658 1.7418L64.2117 1.29062L64.3568 1.14078C64.5018 0.837758 64.7902 0.538086 65.2271 0.538086H66.9659C67.1118 0.538086 67.4028 0.989269 67.2569 1.29062Z" fill="#7C7C7C"/>
</svg>
