<svg width="43" height="13" viewBox="0 0 43 13" fill="none" xmlns="http://www.w3.org/2000/svg">
<path fill-rule="evenodd" clip-rule="evenodd" d="M30.6028 0.73813C29.6334 0.39534 28.6036 0.222095 27.5661 0.227414C24.2125 0.227414 21.86 1.8754 21.8433 4.25044C21.8183 5.98337 23.5285 6.97343 24.8049 7.54592C26.123 8.14161 26.5734 8.5284 26.5567 9.0622C26.5484 9.87451 25.5056 10.2461 24.5379 10.2461C23.4315 10.2754 22.3343 10.052 21.3427 9.59596L20.9256 9.41049L20.4586 12.1412C21.6701 12.5617 22.9523 12.7792 24.2458 12.7834C27.808 12.7834 30.1273 11.1434 30.1607 8.62137C30.194 7.23657 29.2765 6.18422 27.341 5.31002C26.1648 4.74527 25.4306 4.37416 25.4306 3.80167C25.4306 3.29108 26.0645 2.74964 27.3659 2.74964C28.2382 2.73403 29.1037 2.89497 29.902 3.22145L30.2108 3.36046L30.678 0.722642L30.6028 0.73813ZM39.2956 0.451797H36.6845C36.3091 0.406677 35.9282 0.481961 35.605 0.664847C35.2819 0.847733 35.0358 1.12711 34.9074 1.45736L29.8853 12.6055H33.4392L34.1484 10.7798H38.4947C38.6032 11.2131 38.9118 12.6055 38.9118 12.6055H42.0402L39.2956 0.451797ZM17.0298 0.351315H20.4252L18.3062 12.5205H14.9191L17.0298 0.351315ZM8.41201 7.05862L8.76252 8.75283L12.0744 0.459352H15.6698L10.3391 12.5979H6.76023L3.82369 2.31636C3.77811 2.15143 3.66822 2.00805 3.51513 1.91406C2.46688 1.37745 1.34802 0.968941 0.186523 0.699222L0.219926 0.451797H5.67568C6.02487 0.414451 6.37666 0.499126 6.66206 0.6894C6.94746 0.879675 7.14605 1.16194 7.2191 1.48078L8.41201 7.05862ZM35.1077 8.30406L36.4592 4.89261C36.4342 4.92356 36.7345 4.18861 36.9014 3.73217L37.135 4.7842L37.9108 8.30406H35.1077Z" fill="#7C7C7C"/>
</svg>
