<svg width="43" height="30" viewBox="0 0 43 30" fill="none" xmlns="http://www.w3.org/2000/svg">
<path d="M3.35938 0.5H39.6406C41.2339 0.5 42.5 1.75001 42.5 3.26088V26.7391C42.5 28.25 41.2339 29.5 39.6406 29.5H3.35938C1.76606 29.5 0.5 28.25 0.5 26.7391V3.26088C0.5 1.75001 1.76606 0.5 3.35938 0.5Z" stroke="#181818" stroke-opacity="0.1"/>
<path fill-rule="evenodd" clip-rule="evenodd" d="M18.7539 9.61914H25.2464V21.4018H18.7539V9.61914Z" fill="#2271CE"/>
<path fill-rule="evenodd" clip-rule="evenodd" d="M19.1699 15.5068C19.1699 13.1166 20.2798 10.9858 22 9.61198C20.696 8.57459 19.0798 8.00684 17.415 8.00684C13.3225 8.00684 10 11.3643 10 15.4998C10 19.6423 13.3225 22.9928 17.415 22.9928C19.0798 22.9928 20.696 22.4321 22 21.3877C20.2728 20.0279 19.1699 17.897 19.1699 15.5068Z" fill="#005EB6"/>
<path fill-rule="evenodd" clip-rule="evenodd" d="M34 15.507C34 19.6495 30.6775 23 26.585 23C24.9202 23 23.304 22.4393 22 21.3949C23.7272 20.021 24.8301 17.8902 24.8301 15.5C24.8301 13.1098 23.7202 10.979 22 9.60514C23.304 8.56776 24.9202 8 26.585 8C30.6775 8.01402 34 11.3715 34 15.507Z" fill="#0099DF"/>
</svg>
