<svg width="43" height="30" viewBox="0 0 43 30" fill="none" xmlns="http://www.w3.org/2000/svg">
<path d="M3.35938 0.5H39.6406C41.2339 0.5 42.5 1.75001 42.5 3.26088V26.7391C42.5 28.25 41.2339 29.5 39.6406 29.5H3.35938C1.76606 29.5 0.5 28.25 0.5 26.7391V3.26088C0.5 1.75001 1.76606 0.5 3.35938 0.5Z" stroke="#181818" stroke-opacity="0.1"/>
<path d="M25.2475 21.3964H18.7578V9.60352H25.2475V21.3964Z" fill="#6C6BBD"/>
<path d="M19.1672 15.5C19.1672 13.1078 20.2749 10.9768 21.9999 9.60357C20.7385 8.59937 19.1465 8 17.4163 8C13.3203 8 10 11.3578 10 15.5C10 19.6422 13.3203 23 17.4163 23C19.1465 23 20.7385 22.4006 21.9999 21.3964C20.2749 20.0232 19.1672 17.8922 19.1672 15.5Z" fill="#D32011"/>
<path d="M34.0004 15.5C34.0004 19.6422 30.6801 23 26.5841 23C24.8539 23 23.2619 22.4006 22 21.3964C23.7255 20.0232 24.8332 17.8922 24.8332 15.5C24.8332 13.1078 23.7255 10.9768 22 9.60357C23.2619 8.59937 24.8539 8 26.5841 8C30.6801 8 34.0004 11.3578 34.0004 15.5Z" fill="#0099DF"/>
</svg>
