<svg width="43" height="30" viewBox="0 0 43 30" fill="none" xmlns="http://www.w3.org/2000/svg">
<path d="M3.35938 0.5H39.6406C41.2339 0.5 42.5 1.75001 42.5 3.26088V26.7391C42.5 28.25 41.2339 29.5 39.6406 29.5H3.35938C1.76606 29.5 0.5 28.25 0.5 26.7391V3.26088C0.5 1.75001 1.76606 0.5 3.35938 0.5Z" stroke="#181818" stroke-opacity="0.1"/>
<path d="M25.2482 9.59863H18.7578V21.3909H25.2482V9.59863Z" fill="#FF5F00"/>
<path d="M19.1679 15.4981C19.167 14.3626 19.4217 13.2418 19.9125 12.2204C20.4033 11.1991 21.1175 10.304 22.0011 9.60295C20.9068 8.7335 19.5927 8.19286 18.2088 8.04278C16.8249 7.89271 15.4272 8.13927 14.1755 8.75428C12.9237 9.36929 11.8683 10.3279 11.1299 11.5207C10.3916 12.7134 10 14.0921 10 15.4991C10 16.9061 10.3916 18.2849 11.1299 19.4776C11.8683 20.6702 12.9237 21.6289 14.1755 22.2439C15.4272 22.859 16.8249 23.1055 18.2088 22.9554C19.5927 22.8053 20.9068 22.2648 22.0011 21.3952C21.1173 20.6939 20.4028 19.7986 19.9121 18.7768C19.4213 17.7551 19.1667 16.6339 19.1679 15.4981Z" fill="#EB001B"/>
<path d="M33.9982 15.501C33.9982 16.9082 33.6066 18.2869 32.8681 19.4797C32.1295 20.6724 31.074 21.6311 29.8221 22.246C28.5701 22.861 27.1723 23.1074 25.7884 22.9571C24.4046 22.8067 23.0904 22.2659 21.9961 21.3962C22.8793 20.6944 23.5933 19.7991 24.0842 18.7778C24.5752 17.7564 24.8304 16.6356 24.8304 15.5C24.8304 14.3644 24.5752 13.2436 24.0842 12.2222C23.5933 11.2008 22.8793 10.3055 21.9961 9.60381C23.0905 8.73398 24.4049 8.19305 25.7889 8.04284C27.1731 7.89264 28.5711 8.1392 29.8231 8.75439C31.0751 9.36955 32.1306 10.3285 32.8689 11.5216C33.6072 12.7146 33.9987 14.0937 33.9982 15.501Z" fill="#F79E1B"/>
</svg>
