<svg width="43" height="30" viewBox="0 0 43 30" fill="none" xmlns="http://www.w3.org/2000/svg">
<path d="M3.35938 0.5H39.6406C41.2339 0.5 42.5 1.75001 42.5 3.26088V26.7391C42.5 28.25 41.2339 29.5 39.6406 29.5H3.35938C1.76606 29.5 0.5 28.25 0.5 26.7391V3.26088C0.5 1.75001 1.76606 0.5 3.35938 0.5Z" stroke="#181818" stroke-opacity="0.1"/>
<path d="M19.6819 23.148L19.9925 21.132L19.3005 21.1157H15.9961L18.2926 6.24075C18.2994 6.19531 18.322 6.15388 18.3562 6.12402C18.3905 6.09417 18.434 6.07788 18.4791 6.07813H24.0507C25.9003 6.07813 27.1769 6.47135 27.8433 7.24746C28.1557 7.61156 28.3548 7.99202 28.451 8.41074C28.552 8.85007 28.5537 9.37496 28.4552 10.0152L28.4481 10.0619V10.4721L28.7605 10.6529C28.999 10.7764 29.2134 10.9434 29.393 11.1457C29.6604 11.457 29.8332 11.8526 29.9063 12.3217C29.9817 12.8041 29.9568 13.3781 29.8332 14.028C29.6907 14.7756 29.4602 15.4268 29.1489 15.9595C28.8743 16.4368 28.5051 16.8501 28.0648 17.1732C27.6515 17.4729 27.1603 17.7005 26.6048 17.8462C26.0666 17.9894 25.4531 18.0616 24.7802 18.0616H24.3465C24.0364 18.0616 23.7352 18.1757 23.4989 18.3802C23.2628 18.5868 23.1062 18.8724 23.0569 19.186L23.0243 19.3675L22.4755 22.9204L22.4504 23.0508C22.4439 23.0922 22.4327 23.1128 22.416 23.1267C22.3999 23.1402 22.3799 23.1476 22.3589 23.148H19.6819Z" fill="#ADADAD"/>
<path d="M29.0575 10.1104C29.0409 10.219 29.0218 10.33 29.0004 10.4441C28.2658 14.298 25.752 15.6293 22.5414 15.6293H20.9067C20.514 15.6293 20.1833 15.9206 20.1221 16.3163L19.2851 21.7388L19.0481 23.2759C19.0387 23.3369 19.0423 23.3992 19.0587 23.4585C19.0751 23.5181 19.1039 23.5731 19.1432 23.62C19.1823 23.667 19.231 23.7047 19.286 23.7306C19.3409 23.7564 19.4005 23.7698 19.4609 23.7698H22.3602C22.7036 23.7698 22.9952 23.515 23.0492 23.169L23.0777 23.0186L23.6236 19.4797L23.6587 19.2855C23.7122 18.9383 24.0044 18.6834 24.3478 18.6834H24.7813C27.5903 18.6834 29.7892 17.5183 30.4319 14.1469C30.7005 12.7385 30.5615 11.5625 29.8511 10.7354C29.626 10.4795 29.357 10.2677 29.0575 10.1104Z" fill="#179BD7"/>
<path d="M28.2879 9.79893C28.0534 9.7296 27.8147 9.67549 27.5733 9.63691C27.0966 9.56206 26.6147 9.52615 26.1324 9.52951H21.7653C21.599 9.52937 21.4384 9.58999 21.3121 9.7004C21.1857 9.81079 21.1024 9.9637 21.0768 10.1315L20.1478 16.1426L20.1211 16.318C20.1501 16.1266 20.2451 15.9522 20.389 15.8262C20.5329 15.7002 20.7163 15.6309 20.9058 15.6311H22.5405C25.751 15.6311 28.2647 14.2991 28.9995 10.4458C29.0215 10.3317 29.0399 10.2207 29.0566 10.112C28.8627 10.0082 28.6606 9.9211 28.4524 9.85173C28.3979 9.83324 28.343 9.81563 28.2879 9.79893Z" fill="#222D65"/>
<path d="M21.0777 10.1323C21.1031 9.96452 21.1865 9.81155 21.3127 9.7012C21.4391 9.59084 21.6 9.53045 21.7662 9.53098H26.1333C26.6507 9.53098 27.1335 9.56556 27.5742 9.63838C27.8725 9.68628 28.1667 9.75789 28.4539 9.85259C28.6708 9.92601 28.8721 10.0128 29.0581 10.1129C29.2767 8.68871 29.0563 7.71902 28.3025 6.84096C27.4715 5.8743 25.9717 5.46045 24.0526 5.46045H18.4808C18.0888 5.46045 17.7544 5.75172 17.6938 6.14797L15.373 21.1758C15.3623 21.2455 15.3664 21.317 15.3852 21.3849C15.4038 21.4529 15.4368 21.516 15.4817 21.5696C15.5266 21.6234 15.5823 21.6667 15.6451 21.6963C15.7079 21.7259 15.7762 21.7412 15.8454 21.7414H19.2851L20.1487 16.1434L21.0777 10.1323Z" fill="#ADADAD"/>
</svg>
