<svg width="43" height="30" viewBox="0 0 43 30" fill="none" xmlns="http://www.w3.org/2000/svg">
<path d="M3.35938 0.5H39.6406C41.2339 0.5 42.5 1.75001 42.5 3.26088V26.7391C42.5 28.25 41.2339 29.5 39.6406 29.5H3.35938C1.76606 29.5 0.5 28.25 0.5 26.7391V3.26088C0.5 1.75001 1.76606 0.5 3.35938 0.5Z" stroke="#181818" stroke-opacity="0.1"/>
<path d="M21.3892 23.9819C21.2179 23.8963 21.0261 23.8963 20.8446 23.886C20.3822 23.8586 19.9438 23.7147 19.4985 23.612C19.0532 23.5092 18.5806 23.3106 18.1456 23.1085C17.66 22.8789 17.1968 22.6049 16.7618 22.2899C16.4126 22.0462 16.0817 21.7772 15.772 21.485C15.4328 21.1584 15.1212 20.8044 14.8403 20.4266C14.6451 20.1663 14.4636 19.9026 14.2957 19.6286C14.0348 19.2134 13.8167 18.7727 13.645 18.3133C13.597 18.1797 13.5422 18.0496 13.4943 17.9194C13.3955 17.6544 13.3143 17.3833 13.2511 17.1077C13.1689 16.7583 13.073 16.4055 13.0661 16.039C13.0593 15.6725 12.9908 15.3506 13.001 15.0046C13.0182 14.371 13.0559 13.7408 13.1929 13.114C13.315 12.5335 13.4916 11.9658 13.7203 11.4185C13.9104 10.9537 14.1456 10.5086 14.4225 10.0896C14.6828 9.70597 14.9534 9.33263 15.2719 8.99012C15.4774 8.76748 15.6761 8.538 15.9021 8.33592C16.1922 8.06984 16.5 7.82381 16.8235 7.59952C17.1811 7.35252 17.5553 7.13051 17.9435 6.93504C18.4438 6.68573 18.9653 6.48169 19.5019 6.32537C19.9756 6.18748 20.4604 6.09121 20.9508 6.03766C21.0432 6.02738 21.0878 6.05479 21.0878 6.15754C21.0855 7.00697 21.0843 7.85526 21.0843 8.70241C21.0843 8.79488 21.0467 8.83256 20.9576 8.84626C20.4979 8.91172 20.0488 9.03724 19.6218 9.2196C19.0461 9.4597 18.5094 9.78407 18.0291 10.1821C17.7938 10.3734 17.5749 10.5842 17.3749 10.8123C17.0598 11.1669 16.7863 11.5565 16.5598 11.9734C16.3268 12.4118 16.1282 12.8605 16.0015 13.3503C15.8371 13.9771 15.748 14.6073 15.7822 15.2478C15.8048 15.678 15.8702 16.1048 15.9775 16.522C16.1149 17.0647 16.327 17.5857 16.6077 18.0701C16.8672 18.5257 17.1888 18.943 17.5633 19.31C17.8579 19.5943 18.1559 19.8752 18.4984 20.1012C18.8067 20.3088 19.1322 20.4898 19.4711 20.6424C19.8336 20.8009 20.2081 20.9303 20.5911 21.0294C20.8891 21.1048 21.1939 21.1356 21.4988 21.1767C22.0434 21.2521 22.5811 21.1733 23.1223 21.0842C24.0426 20.9263 24.9138 20.557 25.6672 20.0053C26.2389 19.5877 26.7377 19.0785 27.1434 18.4983C27.4893 18.005 27.7462 17.4639 27.9449 16.8953C28.0373 16.6384 28.1161 16.3678 28.1367 16.0904C28.1469 15.9397 28.2017 15.8712 28.3799 15.8746C29.1916 15.8883 29.9999 15.8849 30.8117 15.878C30.9624 15.878 30.9829 15.9157 30.9658 16.0664C30.9179 16.4843 30.8185 16.8919 30.7329 17.2995C30.6884 17.5084 30.6028 17.7071 30.5377 17.9126C30.3922 18.3518 30.2076 18.777 29.9862 19.1833C29.7157 19.6868 29.4142 20.1731 29.0443 20.6116C28.5032 21.2623 27.9038 21.8515 27.205 22.331C26.7563 22.6442 26.2806 22.917 25.7836 23.1462C25.3329 23.3551 24.8655 23.5259 24.3862 23.6565C23.9169 23.7798 23.4408 23.8997 22.9476 23.9134C22.8483 23.9168 22.7455 23.9271 22.6565 23.9819H21.3892Z" fill="#CDCECF"/>
<path d="M30.9946 10.4287C30.9946 11.8261 30.9911 13.2202 31.0014 14.6176C31.0014 14.7957 30.9466 14.8265 30.7822 14.8265C29.967 14.8174 29.1507 14.8174 28.3332 14.8265C28.1928 14.8265 28.1688 14.782 28.1688 14.6553C28.1723 12.768 28.1688 10.8842 28.1757 8.99698C28.1757 8.84628 28.1414 8.80175 27.9839 8.80175C26.0932 8.8086 24.206 8.80518 22.3153 8.8086C22.1715 8.8086 22.1406 8.77093 22.1406 8.6305C22.1475 7.80618 22.1486 6.98073 22.1441 6.15413C22.1406 6.03768 22.168 6 22.2913 6C25.1365 6.00228 27.9839 6.00228 30.8336 6C30.9774 6 30.998 6.05138 30.998 6.17468C30.9957 7.59268 30.9946 9.01068 30.9946 10.4287Z" fill="#F08E00"/>
<path d="M23.6634 15.878C24.4512 15.878 25.239 15.8848 26.0234 15.8746C26.198 15.8711 26.2186 15.9396 26.1809 16.0629C26.1236 16.259 26.0538 16.4512 25.972 16.6384C25.7474 17.1069 25.4438 17.5333 25.0746 17.8988C24.6665 18.3086 24.1762 18.6273 23.636 18.8339C23.1072 19.0447 22.5404 19.1438 21.9714 19.125C21.2485 19.1007 20.5432 18.8958 19.9198 18.529C19.2081 18.1099 18.6343 17.4921 18.2689 16.7514C18.0257 16.2685 17.9127 15.7478 17.8544 15.2067C17.7928 14.5901 17.8887 13.9942 18.0908 13.4222C18.3073 12.8071 18.6678 12.2528 19.1423 11.8055C19.4324 11.5319 19.7585 11.2991 20.1116 11.1136C20.3462 10.9891 20.5915 10.886 20.8446 10.8054C21.0706 10.7335 21.0843 10.7506 21.0843 10.9766V15.6211C21.0843 15.878 21.0843 15.878 21.3344 15.878H23.6634Z" fill="#CDCECF"/>
<path d="M24.193 14.8196C23.5594 14.8196 22.9257 14.8162 22.2921 14.823C22.1688 14.8265 22.1414 14.7888 22.1448 14.6723C22.1494 13.4005 22.1494 12.1297 22.1448 10.8602C22.1448 10.754 22.1688 10.7163 22.2818 10.7163C23.5628 10.7232 24.8415 10.7232 26.1179 10.7163C26.2344 10.7163 26.2584 10.754 26.2584 10.8602C26.255 12.1309 26.2515 13.4016 26.2584 14.6723C26.2584 14.8128 26.2104 14.823 26.094 14.823L24.193 14.8196Z" fill="#F08E00"/>
</svg>
