<svg width="43" height="30" viewBox="0 0 43 30" fill="none" xmlns="http://www.w3.org/2000/svg">
<path d="M39.0909 0H3.90909C1.75016 0 0 1.67893 0 3.75V26.25C0 28.3211 1.75016 30 3.90909 30H39.0909C41.2498 30 43 28.3211 43 26.25V3.75C43 1.67893 41.2498 0 39.0909 0Z" fill="#00579F"/>
<path fill-rule="evenodd" clip-rule="evenodd" d="M27.6337 11.163C27.1884 10.9825 26.4818 10.7832 25.6083 10.7832C23.3779 10.7832 21.8075 11.9978 21.7978 13.7342C21.7794 15.0154 22.9223 15.7269 23.7771 16.1541C24.6509 16.5907 24.9479 16.8756 24.9479 17.2646C24.939 17.8622 24.2418 18.1376 23.5917 18.1376C22.6899 18.1376 22.207 17.9956 21.4727 17.6631L21.1753 17.5207L20.8594 19.523C21.389 19.7694 22.3648 19.9881 23.3779 19.9978C25.7477 19.9978 27.2903 18.8019 27.3086 16.9515C27.3177 15.9361 26.7141 15.158 25.4129 14.5222C24.6231 14.1141 24.1394 13.8389 24.1394 13.4213C24.1486 13.0417 24.5485 12.6528 25.4401 12.6528C26.1743 12.6338 26.7138 12.814 27.1223 12.9944L27.3267 13.0891L27.6337 11.163ZM19.4458 19.8652H17.1875L18.6 10.9453H20.8582L19.4458 19.8652ZM31.5365 14.2095C31.5365 14.2095 30.8208 16.1928 30.6348 16.7052H32.5119C32.419 16.2593 31.9913 14.1241 31.9913 14.1241L31.8335 13.3555C31.7671 13.5533 31.6711 13.8251 31.6063 14.0087L31.6062 14.0088L31.6061 14.0091L31.6061 14.0092C31.5622 14.1335 31.5327 14.2172 31.5365 14.2095ZM31.6756 10.9453H33.4225L35.2444 19.865H33.1534C33.1534 19.865 32.9487 18.8402 32.8839 18.5271H29.9843C29.9005 18.7642 29.5104 19.865 29.5104 19.865H27.1406L30.4952 11.6854C30.7276 11.1065 31.1369 10.9453 31.6756 10.9453ZM15.3023 10.9453L13.0906 17.0277L12.8489 15.7943C12.8458 15.7833 12.8426 15.7723 12.8393 15.7614L12.0561 11.6966C11.9261 11.1269 11.5264 10.9656 11.0339 10.9468H7.40045L7.36328 11.127C8.25113 11.3589 9.04506 11.6932 9.74049 12.1089L11.7524 19.8557H14.1405L17.6903 10.9453H15.3023Z" fill="white"/>
</svg>
