<svg width="18" height="18" viewBox="0 0 18 18" fill="none" xmlns="http://www.w3.org/2000/svg">
<path fill-rule="evenodd" clip-rule="evenodd" d="M6.69225 2.04816C8.16918 1.61098 9.74697 1.65555 11.1969 2.17539C11.5868 2.31519 12.0162 2.11243 12.156 1.72252C12.2958 1.33261 12.093 0.903199 11.7031 0.763402C9.95324 0.136004 8.04902 0.0822182 6.26651 0.609842C4.484 1.13747 2.91585 2.21908 1.7894 3.69787C0.662952 5.17667 0.0367465 6.97579 0.0015677 8.83442C-0.0336112 10.693 0.524065 12.5146 1.59375 14.0349C2.66343 15.5553 4.18953 16.6955 5.95079 17.2902C7.71206 17.8849 9.61695 17.9032 11.3893 17.3425C13.1617 16.7817 14.7094 15.6711 15.8081 14.1716C16.9069 12.6721 17.4994 10.8616 17.5 9.00262C17.5001 8.58841 17.1644 8.25252 16.7502 8.2524C16.336 8.25227 16.0001 8.58796 16 9.00217C15.9995 10.5425 15.5085 12.0426 14.5982 13.285C13.6878 14.5275 12.4054 15.4477 10.9369 15.9123C9.46833 16.3769 7.88999 16.3617 6.43066 15.869C4.97132 15.3762 3.70684 14.4315 2.82053 13.1718C1.93423 11.9121 1.47215 10.4028 1.5013 8.8628C1.53045 7.3228 2.0493 5.8321 2.98265 4.60681C3.91599 3.38152 5.21531 2.48533 6.69225 2.04816ZM17.2803 3.53277C17.5732 3.23988 17.5732 2.765 17.2803 2.47211C16.9874 2.17922 16.5126 2.17922 16.2197 2.47211L8.75 9.94178L6.28033 7.47211C5.98744 7.17922 5.51256 7.17922 5.21967 7.47211C4.92678 7.765 4.92678 8.23988 5.21967 8.53277L8.21967 11.5328C8.51256 11.8257 8.98744 11.8257 9.28033 11.5328L17.2803 3.53277Z" fill="#161616"/>
</svg>
