<svg width="20" height="20" viewBox="0 0 20 20" fill="none" xmlns="http://www.w3.org/2000/svg">
<path fill-rule="evenodd" clip-rule="evenodd" d="M3.48019 3.54054C1.03758 5.98316 1.03313 9.93232 3.46206 12.3612C5.89099 14.7902 9.84015 14.7857 12.2828 12.3431C14.7254 9.9005 14.7298 5.95134 12.3009 3.52241C9.87196 1.09348 5.9228 1.09793 3.48019 3.54054ZM2.4014 13.4219C-0.616984 10.4035 -0.605196 5.50461 2.41953 2.47988C5.44426 -0.544843 10.3432 -0.556631 13.3616 2.46175C16.2014 5.30161 16.3589 9.80614 13.8485 12.8482L19.0304 18.0302L17.9698 19.0909L12.7878 13.9089C9.74578 16.4193 5.24126 16.2618 2.4014 13.4219Z" fill="white"/>
</svg>
