<svg width="20" height="22" viewBox="0 0 20 22" fill="none" xmlns="http://www.w3.org/2000/svg">
<path fill-rule="evenodd" clip-rule="evenodd" d="M9.06985 2.15138C9.07592 2.14801 9.08192 2.14456 9.08785 2.14104C9.27613 2.04054 9.48636 1.98789 9.7 1.98789C9.92086 1.98789 10.1381 2.04416 10.3311 2.15138L12.7585 3.49958L5.20013 7.69867L2.14114 5.99923L9.06985 2.15138ZM11.0108 0.927452L14.5256 2.87962C14.5357 2.88491 14.5456 2.89044 14.5555 2.89622L18.5259 5.10147C18.6321 5.16052 18.7312 5.23054 18.8218 5.31007C19.0222 5.34555 19.2055 5.46771 19.312 5.65949C19.4126 5.84053 19.4244 6.04688 19.3617 6.22833C19.387 6.34584 19.4 6.4662 19.4 6.58745V14.8224C19.3999 15.3039 19.271 15.7767 19.0268 16.1917C18.7826 16.6065 18.4319 16.9485 18.011 17.1823L11.011 21.0723C10.61 21.295 10.1587 21.4119 9.7 21.4119C9.2413 21.4119 8.79016 21.2951 8.38915 21.0724L1.38915 17.1824C0.968431 16.9487 0.617804 16.6069 0.373565 16.1922C0.129327 15.7776 0.000354768 15.3052 8.70647e-10 14.8239V6.58745C-2.9356e-06 6.46605 0.0129925 6.34554 0.0384472 6.22789C-0.024096 6.04654 -0.0122763 5.84038 0.0882174 5.65949C0.194691 5.46784 0.377842 5.34572 0.578096 5.31014C0.668584 5.23066 0.767643 5.16068 0.8738 5.10165L8.36649 0.940588C8.37394 0.936085 8.38149 0.931704 8.38915 0.927452C8.79016 0.704753 9.2413 0.587891 9.7 0.587891C10.1587 0.587891 10.6098 0.704753 11.0108 0.927452ZM6.64152 8.49944L14.2001 4.30026L17.259 5.99928L9.70013 10.1987L6.64152 8.49944ZM4.86971 9.11665C4.86291 9.11302 4.85617 9.10927 4.84948 9.10541L1.4 7.18903V14.8231C1.40021 15.0548 1.46231 15.2821 1.57986 15.4817C1.69746 15.6814 1.86628 15.846 2.06885 15.9585L9.00013 19.8103V11.4113L4.86971 9.11665ZM18 7.18917L10.4001 11.4113V19.8101L17.331 15.9585C17.5336 15.846 17.7027 15.6812 17.8203 15.4814C17.9379 15.2817 17.9999 15.0542 18 14.8224V7.18917ZM4.04091 10.7159C3.70321 10.5277 3.27689 10.6489 3.08868 10.9865C2.90047 11.3242 3.02165 11.7506 3.35935 11.9388L6.35935 13.6108C6.69704 13.799 7.12337 13.6778 7.31157 13.3401C7.49978 13.0024 7.3786 12.5761 7.04091 12.3879L4.04091 10.7159Z" fill="#161616"/>
</svg>
