<svg width="17" height="20" viewBox="0 0 17 20" fill="none" xmlns="http://www.w3.org/2000/svg">
<path fill-rule="evenodd" clip-rule="evenodd" d="M8.5 10.46C10.7091 10.46 12.5 8.6691 12.5 6.45996C12.5 4.25082 10.7091 2.45996 8.5 2.45996C6.29086 2.45996 4.5 4.25082 4.5 6.45996C4.5 8.6691 6.29086 10.46 8.5 10.46ZM8.5 11.96C11.5376 11.96 14 9.49753 14 6.45996C14 3.42239 11.5376 0.959961 8.5 0.959961C5.46243 0.959961 3 3.42239 3 6.45996C3 9.49753 5.46243 11.96 8.5 11.96Z" fill="white"/>
<path fill-rule="evenodd" clip-rule="evenodd" d="M8.50065 15.71C5.55668 15.71 2.95209 17.1631 1.36493 19.3947L0.142578 18.5253C1.99904 15.9151 5.0507 14.21 8.50065 14.21C11.9506 14.21 15.0023 15.9151 16.8587 18.5253L15.6364 19.3947C14.0492 17.1631 11.4446 15.71 8.50065 15.71Z" fill="white"/>
</svg>
